<?xml version="1.0" encoding="UTF-8"?>
<svg id="_レイヤー_2" data-name="レイヤー 2" xmlns="http://www.w3.org/2000/svg" viewBox="0 0 88.32 91">
  <defs>
    <style>
      .cls-1 {
        fill: #0071bc;
      }

      .cls-1, .cls-2 {
        stroke-width: 0px;
      }

      .cls-3 {
        fill: #333;
        font-family: UDDigiKyokashoN-B, 'UD Digi Kyokasho N-B';
        font-size: 26px;
      }

      .cls-2 {
        fill: #639bba;
      }

      .cls-4 {
        letter-spacing: .05em;
      }
    </style>
  </defs>
  <g id="_レイヤー_1-2" data-name="レイヤー 1">
    <g>
      <g>
        <g>
          <rect class="cls-2" x="13.28" y="9" width="12.49" height="28.15" rx="1.97" ry="1.97"/>
          <rect class="cls-2" x="7.52" y="-.4" width="9.19" height="27.06" rx="1.69" ry="1.69" transform="translate(12.83 -4.72) rotate(45)"/>
          <rect class="cls-2" x="21.79" y="-1.75" width="9.19" height="29.16" rx="1.76" ry="1.76" transform="translate(54.11 3.24) rotate(135)"/>
        </g>
        <g>
          <g>
            <rect class="cls-1" x="36.3" y="77.68" width="12.75" height="11.84" rx="1.65" ry="1.65" transform="translate(50.31 177.16) rotate(-157.63)"/>
            <rect class="cls-1" x="20.4" y="61.86" width="12.75" height="11.84" rx="1.65" ry="1.65" transform="translate(-25.48 118.57) rotate(-112.63)"/>
            <rect class="cls-1" x="20.35" y="39.43" width="12.75" height="11.84" rx="1.65" ry="1.65" transform="translate(-25.38 52.8) rotate(-67.63)"/>
            <rect class="cls-1" x="36.17" y="23.53" width="12.75" height="11.84" rx="1.65" ry="1.65" transform="translate(-8.06 18.64) rotate(-22.63)"/>
            <rect class="cls-1" x="58.61" y="23.48" width="12.75" height="11.84" rx="1.65" ry="1.65" transform="translate(16.08 -22.52) rotate(22.37)"/>
            <rect class="cls-1" x="74.5" y="39.31" width="12.75" height="11.84" rx="1.65" ry="1.65" transform="translate(91.5 -46.83) rotate(67.37)"/>
            <rect class="cls-1" x="74.55" y="61.74" width="12.75" height="11.84" rx="1.65" ry="1.65" transform="translate(174.29 18.57) rotate(112.37)"/>
            <rect class="cls-1" x="58.73" y="77.63" width="12.75" height="11.84" rx="1.65" ry="1.65" transform="translate(157.34 135.63) rotate(157.37)"/>
          </g>
          <path class="cls-1" d="M65.44,30.89c-14.14-6.42-30.81-.15-37.23,13.99-6.42,14.14-.15,30.81,13.99,37.23,14.14,6.42,30.81.15,37.23-13.99,6.42-14.14.15-30.81-13.99-37.23ZM66.39,62.2c-3.15,6.94-11.32,10.01-18.26,6.86-6.94-3.15-10.01-11.32-6.86-18.26,3.15-6.94,11.32-10.01,18.26-6.86,6.94,3.15,10.01,11.32,6.86,18.26Z"/>
        </g>
      </g>
      <text class="cls-3" transform="translate(33.5 62.16)"><tspan x="0" y="0">T</tspan><tspan class="cls-4" x="13" y="5.86">O</tspan><tspan x="27.33" y="11.72">P</tspan></text>
    </g>
  </g>
</svg>