<?xml version="1.0" encoding="UTF-8"?>
<svg id="_レイヤー_2" data-name="レイヤー 2" xmlns="http://www.w3.org/2000/svg" viewBox="0 0 68.99 98">
  <defs>
    <style>
      .cls-1 {
        fill: #0071bc;
      }

      .cls-1, .cls-2 {
        stroke-width: 0px;
      }

      .cls-3 {
        fill: #333;
        font-family: UDDigiKyokashoN-B, 'UD Digi Kyokasho N-B';
        font-size: 18px;
      }

      .cls-2 {
        fill: #639bba;
      }
    </style>
  </defs>
  <g id="_レイヤー_1-2" data-name="レイヤー 1">
    <g>
      <g>
        <g>
          <rect class="cls-1" x="16.97" y="84.68" width="12.75" height="11.84" rx="1.65" ry="1.65" transform="translate(10.45 183.27) rotate(-157.63)"/>
          <rect class="cls-1" x="1.07" y="68.86" width="12.75" height="11.84" rx="1.65" ry="1.65" transform="translate(-58.71 110.42) rotate(-112.63)"/>
          <rect class="cls-1" x="1.02" y="46.43" width="12.75" height="11.84" rx="1.65" ry="1.65" transform="translate(-43.83 39.26) rotate(-67.63)"/>
          <rect class="cls-1" x="16.85" y="30.53" width="12.75" height="11.84" rx="1.65" ry="1.65" transform="translate(-12.24 11.74) rotate(-22.63)"/>
          <rect class="cls-1" x="39.28" y="30.48" width="12.75" height="11.84" rx="1.65" ry="1.65" transform="translate(17.29 -14.64) rotate(22.37)"/>
          <rect class="cls-1" x="55.17" y="46.31" width="12.75" height="11.84" rx="1.65" ry="1.65" transform="translate(86.07 -24.68) rotate(67.37)"/>
          <rect class="cls-1" x="55.22" y="68.74" width="12.75" height="11.84" rx="1.65" ry="1.65" transform="translate(154.08 46.11) rotate(112.37)"/>
          <rect class="cls-1" x="39.4" y="84.63" width="12.75" height="11.84" rx="1.65" ry="1.65" transform="translate(122.86 156.53) rotate(157.37)"/>
        </g>
        <path class="cls-1" d="M46.11,37.89c-14.14-6.42-30.81-.15-37.23,13.99-6.42,14.14-.15,30.81,13.99,37.23,14.14,6.42,30.81.15,37.23-13.99,6.42-14.14.15-30.81-13.99-37.23ZM47.06,69.2c-3.15,6.94-11.32,10.01-18.26,6.86-6.94-3.15-10.01-11.32-6.86-18.26,3.15-6.94,11.32-10.01,18.26-6.86,6.94,3.15,10.01,11.32,6.86,18.26Z"/>
        <rect class="cls-2" x="27.95" y="9" width="12.49" height="28.15" rx="1.97" ry="1.97"/>
        <rect class="cls-2" x="22.19" y="-.4" width="9.19" height="27.06" rx="1.69" ry="1.69" transform="translate(17.13 -15.09) rotate(45)"/>
        <rect class="cls-2" x="36.46" y="-1.75" width="9.19" height="29.16" rx="1.76" ry="1.76" transform="translate(79.16 -7.13) rotate(135)"/>
      </g>
      <text class="cls-3" transform="translate(21.61 71.02)"><tspan x="0" y="0">TOP</tspan></text>
    </g>
  </g>
</svg>