<?xml version="1.0" standalone="no"?>
<svg viewBox="0 0 200 200" xmlns="http://www.w3.org/2000/svg">
  <path fill="#FFFFFF" d="M40,-69.2C49.8,-63.7,54.3,-48.8,58.5,-35.7C62.8,-22.6,66.8,-11.3,69,1.3C71.2,13.8,71.5,27.6,64.4,35.8C57.3,44,42.8,46.5,30.8,51.6C18.9,56.6,9.4,64.2,0.3,63.8C-8.9,63.3,-17.8,54.7,-29.5,49.6C-41.3,44.4,-56,42.6,-68.2,34.9C-80.4,27.2,-90.1,13.6,-90.2,-0.1C-90.4,-13.7,-80.9,-27.5,-68.7,-35.2C-56.5,-43,-41.7,-44.7,-29.8,-49C-17.9,-53.3,-8.9,-60.1,3.1,-65.5C15.1,-70.9,30.2,-74.7,40,-69.2Z" transform="translate(100 100)" />
</svg>
